<svg id="svg" version="1.1" xmlns="http://www.w3.org/2000/svg" xmlns:xlink="http://www.w3.org/1999/xlink" width="400" height="400" viewBox="0, 0, 400,400"><g id="svgg"><path id="path0" d="M86.016 165.703 C 85.258 166.461,85.390 173.225,86.178 174.013 C 86.733 174.568,88.117 174.635,97.604 174.568 C 109.900 174.480,110.750 174.655,113.474 177.837 C 119.472 184.845,114.689 194.457,105.176 194.514 L 102.344 194.531 102.344 196.901 C 102.344 199.699,101.981 200.548,100.064 202.241 L 98.633 203.506 106.270 211.128 L 113.907 218.750 119.427 218.750 C 126.825 218.750,127.216 217.980,122.099 213.487 C 120.710 212.268,117.884 209.445,115.818 207.214 L 112.062 203.158 114.893 201.733 C 130.915 193.665,128.463 170.351,111.117 165.832 C 108.134 165.056,86.773 164.946,86.016 165.703 M255.351 172.905 C 255.201 173.054,255.078 175.257,255.078 177.799 L 255.078 182.422 252.001 182.422 C 248.065 182.422,247.986 182.520,248.129 187.168 L 248.242 190.820 251.637 190.933 L 255.032 191.045 255.153 201.480 C 255.287 213.108,255.381 213.551,258.267 216.265 C 260.563 218.424,261.879 218.852,266.855 219.057 C 273.718 219.340,273.438 219.518,273.438 214.878 C 273.438 210.406,273.566 210.547,269.482 210.547 C 264.681 210.547,264.362 209.778,264.534 198.633 L 264.648 191.211 268.750 191.016 L 272.852 190.820 272.852 186.719 L 272.852 182.617 268.664 182.506 L 264.477 182.396 264.367 177.624 L 264.258 172.852 259.940 172.742 C 257.566 172.681,255.500 172.755,255.351 172.905 M141.447 182.259 C 127.966 185.884,123.213 203.153,132.858 213.463 C 140.072 221.175,153.022 221.564,160.724 214.301 C 162.571 212.559,162.503 212.253,159.732 209.863 C 156.949 207.462,157.036 207.477,154.717 208.966 C 148.348 213.052,141.033 212.034,138.302 206.681 C 136.664 203.470,135.635 203.736,150.581 203.516 L 163.857 203.320 164.384 202.221 C 165.171 200.578,164.350 195.053,162.853 191.915 C 159.117 184.084,149.983 179.963,141.447 182.259 M183.828 182.419 C 182.561 182.824,180.782 183.687,179.876 184.338 C 178.141 185.584,177.734 185.556,177.734 184.193 C 177.734 182.597,172.182 181.579,169.368 182.659 C 168.305 183.067,168.440 233.791,169.506 234.361 C 170.576 234.934,177.071 234.883,177.656 234.297 C 177.993 233.960,178.125 231.372,178.125 225.117 C 178.125 220.326,178.195 216.406,178.280 216.406 C 178.365 216.406,179.756 217.034,181.372 217.801 C 196.853 225.153,212.237 207.643,204.429 191.558 C 200.842 184.167,191.429 179.991,183.828 182.419 M211.198 182.682 C 210.655 183.225,210.918 207.510,211.490 209.658 C 213.839 218.480,225.747 222.515,233.028 216.956 C 235.135 215.348,235.156 215.346,235.156 216.719 C 235.156 218.475,235.764 218.750,239.648 218.750 C 244.574 218.750,244.141 220.501,244.141 200.586 C 244.141 180.551,244.650 182.422,239.193 182.422 C 234.010 182.422,234.375 181.476,234.395 194.873 C 234.410 205.109,234.360 205.921,233.621 207.369 C 231.540 211.447,225.989 212.421,222.465 209.326 C 220.480 207.584,220.317 206.444,220.315 194.316 C 220.313 186.318,220.186 183.233,219.844 182.891 C 219.343 182.390,211.675 182.205,211.198 182.682 M277.051 182.681 C 275.972 183.116,275.872 182.830,283.000 199.609 C 288.470 212.483,290.625 218.025,290.625 219.220 C 290.625 223.164,286.185 226.622,281.865 226.043 C 279.174 225.682,278.906 226.065,278.906 230.273 C 278.906 234.880,278.996 234.952,284.343 234.658 C 293.054 234.178,295.954 231.418,300.555 219.232 C 301.913 215.637,305.612 206.143,308.777 198.135 C 311.941 190.127,314.430 183.316,314.308 182.999 C 314.013 182.229,305.387 182.149,304.792 182.910 C 304.583 183.179,303.080 187.090,301.454 191.602 C 297.060 203.789,296.034 206.347,295.684 205.989 C 295.510 205.810,293.401 200.654,290.998 194.531 C 288.596 188.408,286.452 183.179,286.236 182.910 C 285.845 182.426,278.159 182.233,277.051 182.681 M151.083 190.866 C 152.836 191.889,154.460 193.989,154.901 195.801 L 155.163 196.875 146.331 196.875 C 141.114 196.875,137.500 196.726,137.500 196.510 C 137.500 191.425,145.995 187.895,151.083 190.866 M192.180 191.635 C 199.237 195.476,198.965 206.316,191.721 209.926 C 185.064 213.243,177.617 208.238,177.662 200.476 C 177.707 192.653,185.421 187.956,192.180 191.635 M89.519 204.744 C 86.576 206.201,85.769 207.936,85.603 213.161 C 85.421 218.902,85.283 218.750,90.650 218.750 C 95.966 218.750,95.528 219.795,95.362 207.520 L 95.313 203.906 93.262 203.907 C 91.952 203.907,90.599 204.210,89.519 204.744 " stroke="none" fill="#242c34" fill-rule="evenodd"></path><path id="path1" d="M0.000 200.000 L 0.000 400.000 200.000 400.000 L 400.000 400.000 400.000 200.000 L 400.000 0.000 200.000 0.000 L 0.000 0.000 0.000 200.000 M112.664 165.942 C 121.052 169.055,125.586 175.601,125.586 184.600 L 125.586 189.707 123.929 193.050 C 121.938 197.069,118.896 200.112,115.022 201.961 L 112.470 203.179 114.411 205.398 C 115.478 206.619,118.473 209.724,121.066 212.299 C 126.096 217.292,126.123 217.334,125.135 218.426 C 124.569 219.051,123.828 219.141,119.215 219.141 L 113.942 219.141 106.096 211.348 L 98.250 203.556 99.878 202.162 C 101.758 200.553,102.461 198.803,102.278 196.187 L 102.148 194.336 105.664 194.138 C 113.386 193.704,117.316 188.353,115.172 181.195 C 113.528 175.710,111.197 174.846,97.395 174.609 C 91.128 174.502,85.911 174.324,85.801 174.214 C 85.274 173.683,85.369 166.115,85.912 165.461 C 86.853 164.327,109.405 164.733,112.664 165.942 M264.375 172.734 C 264.684 173.044,264.844 174.705,264.844 177.617 L 264.844 182.031 268.672 182.031 C 273.479 182.031,273.438 181.990,273.438 186.783 C 273.438 191.405,273.436 191.406,268.385 191.406 L 264.844 191.406 264.844 199.783 C 264.844 210.216,264.856 210.242,269.782 210.482 C 273.785 210.677,273.828 210.723,273.828 214.813 C 273.828 219.245,273.972 219.141,267.793 219.137 C 261.886 219.132,259.790 218.458,257.468 215.813 C 255.009 213.013,254.920 212.540,254.762 201.465 L 254.620 191.406 251.542 191.406 C 247.807 191.406,247.656 191.229,247.656 186.831 C 247.656 182.475,248.038 182.031,251.780 182.031 L 254.688 182.031 254.688 177.904 C 254.688 172.146,254.582 172.266,259.701 172.266 C 262.451 172.266,264.068 172.428,264.375 172.734 M150.078 181.682 C 158.658 183.471,164.844 191.039,164.844 199.747 C 164.844 204.180,165.787 203.906,150.525 203.906 C 143.361 203.906,137.500 204.000,137.500 204.114 C 137.500 210.407,147.358 213.252,154.322 208.969 C 157.155 207.227,156.998 207.193,160.644 210.322 C 162.902 212.259,162.908 212.365,160.877 214.375 C 150.821 224.332,132.756 219.971,128.428 206.542 C 123.991 192.773,136.175 178.782,150.078 181.682 M191.016 181.664 C 203.745 183.710,210.513 197.676,204.599 209.691 C 200.329 218.365,189.464 222.178,181.074 217.946 C 179.821 217.314,178.733 216.797,178.656 216.797 C 178.579 216.797,178.516 220.629,178.516 225.312 C 178.516 231.415,178.383 233.961,178.047 234.297 C 177.176 235.167,169.252 234.923,168.764 234.010 C 168.497 233.512,168.359 224.740,168.359 208.251 L 168.359 183.247 169.228 182.639 C 171.690 180.915,178.125 182.107,178.125 184.288 C 178.125 185.218,178.155 185.229,179.004 184.605 C 180.503 183.501,183.847 182.016,185.616 181.668 C 187.967 181.205,188.160 181.205,191.016 181.664 M219.989 182.678 C 220.650 183.276,220.703 184.179,220.703 194.803 C 220.703 205.445,220.759 206.391,221.471 207.787 C 222.956 210.696,227.142 211.754,230.461 210.059 C 234.099 208.200,234.354 207.117,234.366 193.471 C 234.377 181.044,233.946 182.031,239.353 182.031 C 244.725 182.031,244.213 180.189,244.445 200.331 C 244.682 220.902,245.136 219.141,239.597 219.141 C 235.654 219.141,234.360 218.389,234.880 216.400 C 235.066 215.689,234.973 215.710,233.897 216.615 C 225.894 223.350,212.851 218.690,210.971 208.424 C 210.252 204.496,210.407 183.399,211.161 182.645 C 212.067 181.739,218.980 181.764,219.989 182.678 M286.050 182.520 C 286.409 182.788,288.645 187.911,291.020 193.904 C 296.364 207.392,295.813 206.461,296.791 203.665 C 300.288 193.661,304.445 182.923,304.976 182.520 C 306.827 181.113,315.335 182.180,314.715 183.742 C 310.327 194.783,302.861 213.871,301.098 218.555 C 296.061 231.931,293.000 234.766,283.593 234.766 C 278.514 234.766,278.516 234.767,278.516 230.273 C 278.516 226.013,278.704 225.781,282.179 225.781 C 286.158 225.781,288.087 224.758,289.562 221.866 C 291.036 218.974,290.991 218.839,279.870 192.794 C 275.941 183.593,275.755 182.823,277.346 182.380 C 279.092 181.894,285.349 181.995,286.050 182.520 M143.213 190.394 C 140.782 191.299,137.891 194.490,137.891 196.270 C 137.891 196.798,138.969 196.875,146.338 196.875 L 154.785 196.875 154.538 195.638 C 153.692 191.409,147.807 188.683,143.213 190.394 M184.281 191.181 C 174.023 194.842,176.586 210.547,187.441 210.547 C 191.559 210.547,194.522 208.644,196.094 204.990 C 199.658 196.707,192.439 188.269,184.281 191.181 M95.703 210.859 C 95.703 219.648,95.997 219.141,90.912 219.141 C 85.397 219.141,85.547 219.295,85.547 213.639 C 85.547 206.505,87.897 203.574,93.652 203.531 L 95.703 203.516 95.703 210.859 " stroke="none" fill="#dbe4e4" fill-rule="evenodd"></path><path id="path2" d="M101.478 165.132 C 102.613 165.211,104.371 165.211,105.384 165.130 C 106.397 165.050,105.469 164.985,103.320 164.986 C 101.172 164.987,100.343 165.053,101.478 165.132 M264.601 177.734 C 264.601 180.205,264.664 181.216,264.742 179.980 C 264.819 178.745,264.819 176.724,264.742 175.488 C 264.664 174.253,264.601 175.264,264.601 177.734 M145.801 181.519 C 146.177 181.618,146.792 181.618,147.168 181.519 C 147.544 181.421,147.236 181.341,146.484 181.341 C 145.732 181.341,145.425 181.421,145.801 181.519 M273.188 186.719 C 273.188 188.760,273.254 189.595,273.334 188.574 C 273.414 187.554,273.414 185.884,273.334 184.863 C 273.254 183.843,273.188 184.678,273.188 186.719 M168.532 196.094 C 168.532 202.432,168.586 205.024,168.652 201.855 C 168.717 198.687,168.717 193.501,168.652 190.332 C 168.586 187.163,168.532 189.756,168.532 196.094 M210.707 193.555 C 210.706 197.207,210.765 198.754,210.837 196.992 C 210.909 195.230,210.910 192.242,210.838 190.351 C 210.766 188.461,210.707 189.902,210.707 193.555 M220.477 197.461 C 220.476 201.758,220.533 203.569,220.603 201.486 C 220.674 199.402,220.674 195.887,220.604 193.673 C 220.534 191.460,220.477 193.164,220.477 197.461 M268.262 191.298 C 268.960 191.385,270.103 191.385,270.801 191.298 C 271.499 191.212,270.928 191.141,269.531 191.141 C 268.135 191.141,267.563 191.212,268.262 191.298 M264.578 193.750 C 264.578 195.146,264.649 195.718,264.736 195.020 C 264.822 194.321,264.822 193.179,264.736 192.480 C 264.649 191.782,264.578 192.354,264.578 193.750 M155.973 203.806 C 157.432 203.881,159.718 203.880,161.051 203.804 C 162.385 203.728,161.191 203.667,158.398 203.667 C 155.605 203.668,154.514 203.730,155.973 203.806 M178.224 217.773 C 178.228 218.633,178.308 218.938,178.401 218.452 C 178.495 217.967,178.491 217.263,178.393 216.890 C 178.296 216.517,178.219 216.914,178.224 217.773 M146.582 219.801 C 146.958 219.899,147.573 219.899,147.949 219.801 C 148.325 219.702,148.018 219.622,147.266 219.622 C 146.514 219.622,146.206 219.702,146.582 219.801 M178.274 228.711 C 178.275 231.289,178.338 232.293,178.415 230.942 C 178.491 229.591,178.490 227.481,178.413 226.254 C 178.336 225.027,178.273 226.133,178.274 228.711 " stroke="none" fill="#8c979c" fill-rule="evenodd"></path><path id="path3" d="M89.961 165.135 C 91.851 165.207,94.839 165.206,96.601 165.134 C 98.363 165.062,96.816 165.003,93.164 165.004 C 89.512 165.004,88.070 165.063,89.961 165.135 M258.119 172.554 C 259.254 172.633,261.012 172.632,262.025 172.552 C 263.038 172.472,262.109 172.407,259.961 172.408 C 257.813 172.409,256.983 172.475,258.119 172.554 M103.423 174.495 C 103.908 174.588,104.612 174.585,104.985 174.487 C 105.358 174.389,104.961 174.313,104.102 174.317 C 103.242 174.322,102.937 174.402,103.423 174.495 M145.801 189.722 C 146.177 189.821,146.792 189.821,147.168 189.722 C 147.544 189.624,147.236 189.544,146.484 189.544 C 145.732 189.544,145.425 189.624,145.801 189.722 M186.621 190.510 C 187.104 190.603,187.896 190.603,188.379 190.510 C 188.862 190.417,188.467 190.341,187.500 190.341 C 186.533 190.341,186.138 190.417,186.621 190.510 M250.293 191.302 C 251.206 191.384,252.700 191.384,253.613 191.302 C 254.526 191.219,253.779 191.152,251.953 191.152 C 250.127 191.152,249.380 191.219,250.293 191.302 M265.332 191.285 C 265.708 191.383,266.323 191.383,266.699 191.285 C 267.075 191.187,266.768 191.106,266.016 191.106 C 265.264 191.106,264.956 191.187,265.332 191.285 M264.609 201.758 C 264.610 204.980,264.670 206.247,264.744 204.572 C 264.817 202.897,264.817 200.260,264.743 198.713 C 264.669 197.165,264.609 198.535,264.609 201.758 M210.664 201.953 C 210.664 203.135,210.737 203.618,210.827 203.027 C 210.916 202.437,210.916 201.470,210.827 200.879 C 210.737 200.288,210.664 200.771,210.664 201.953 M137.364 203.809 C 137.264 203.970,139.671 204.056,142.712 204.001 C 152.778 203.817,153.816 203.672,145.629 203.593 C 141.183 203.551,137.464 203.647,137.364 203.809 M95.453 207.422 C 95.453 209.463,95.519 210.298,95.600 209.277 C 95.680 208.257,95.680 206.587,95.600 205.566 C 95.519 204.546,95.453 205.381,95.453 207.422 M116.016 207.529 C 116.016 207.588,117.378 208.951,119.043 210.557 L 122.070 213.477 119.150 210.449 C 116.438 207.637,116.016 207.244,116.016 207.529 M273.574 214.844 C 273.574 216.670,273.641 217.417,273.724 216.504 C 273.806 215.591,273.806 214.097,273.724 213.184 C 273.641 212.271,273.574 213.018,273.574 214.844 M95.434 214.648 C 95.436 215.937,95.509 216.418,95.596 215.716 C 95.683 215.014,95.681 213.959,95.592 213.372 C 95.502 212.785,95.431 213.359,95.434 214.648 M132.031 213.013 C 132.031 213.080,132.603 213.651,133.301 214.282 L 134.570 215.430 133.423 214.160 C 132.354 212.977,132.031 212.711,132.031 213.013 M88.978 219.038 C 90.113 219.118,91.871 219.117,92.884 219.037 C 93.897 218.956,92.969 218.892,90.820 218.893 C 88.672 218.894,87.843 218.959,88.978 219.038 M117.090 219.039 C 118.433 219.115,120.630 219.115,121.973 219.039 C 123.315 218.963,122.217 218.901,119.531 218.901 C 116.846 218.901,115.747 218.963,117.090 219.039 M238.000 219.038 C 239.027 219.118,240.609 219.117,241.516 219.035 C 242.422 218.954,241.582 218.887,239.648 218.889 C 237.715 218.890,236.973 218.957,238.000 219.038 M281.934 226.057 C 282.417 226.150,283.208 226.150,283.691 226.057 C 284.175 225.964,283.779 225.888,282.813 225.888 C 281.846 225.888,281.450 225.964,281.934 226.057 " stroke="none" fill="#747c82" fill-rule="evenodd"></path><path id="path4" d="M254.770 177.620 L 254.688 181.998 251.660 182.132 L 248.633 182.265 251.672 182.343 C 255.307 182.437,255.147 182.680,254.980 177.317 L 254.852 173.242 254.770 177.620 M187.598 181.519 C 187.974 181.618,188.589 181.618,188.965 181.519 C 189.341 181.421,189.033 181.341,188.281 181.341 C 187.529 181.341,187.222 181.421,187.598 181.519 M171.582 182.318 C 172.603 182.399,174.272 182.399,175.293 182.318 C 176.313 182.238,175.479 182.172,173.438 182.172 C 171.396 182.172,170.562 182.238,171.582 182.318 M213.574 182.319 C 214.702 182.398,216.548 182.398,217.676 182.319 C 218.804 182.240,217.881 182.176,215.625 182.176 C 213.369 182.176,212.446 182.240,213.574 182.319 M238.770 182.316 C 239.575 182.400,240.894 182.400,241.699 182.316 C 242.505 182.232,241.846 182.163,240.234 182.163 C 238.623 182.163,237.964 182.232,238.770 182.316 M266.699 182.319 C 267.827 182.398,269.673 182.398,270.801 182.319 C 271.929 182.240,271.006 182.176,268.750 182.176 C 266.494 182.176,265.571 182.240,266.699 182.319 M279.994 182.320 C 281.129 182.399,282.887 182.398,283.900 182.318 C 284.913 182.238,283.984 182.173,281.836 182.174 C 279.688 182.175,278.858 182.241,279.994 182.320 M307.534 182.320 C 308.777 182.398,310.711 182.397,311.831 182.319 C 312.951 182.240,311.934 182.176,309.570 182.177 C 307.207 182.178,306.291 182.243,307.534 182.320 M210.664 185.156 C 210.664 186.338,210.737 186.821,210.827 186.230 C 210.916 185.640,210.916 184.673,210.827 184.082 C 210.737 183.491,210.664 183.975,210.664 185.156 M220.451 186.523 C 220.450 188.457,220.516 189.297,220.598 188.391 C 220.680 187.484,220.681 185.902,220.600 184.875 C 220.519 183.848,220.452 184.590,220.451 186.523 M115.716 184.766 C 115.716 185.518,115.796 185.825,115.894 185.449 C 115.993 185.073,115.993 184.458,115.894 184.082 C 115.796 183.706,115.716 184.014,115.716 184.766 M247.795 186.914 C 247.794 188.848,247.860 189.688,247.942 188.781 C 248.024 187.875,248.025 186.293,247.944 185.266 C 247.863 184.239,247.796 184.980,247.795 186.914 M244.317 204.297 C 244.317 211.924,244.369 215.044,244.433 211.230 C 244.497 207.417,244.497 201.177,244.433 197.363 C 244.369 193.550,244.317 196.670,244.317 204.297 M254.856 200.586 C 254.856 205.742,254.912 207.798,254.979 205.153 C 255.047 202.509,255.047 198.290,254.979 195.778 C 254.911 193.266,254.856 195.430,254.856 200.586 M102.088 194.743 C 101.961 195.075,101.966 195.456,102.100 195.590 C 102.234 195.724,102.344 195.553,102.344 195.211 C 102.344 194.869,102.651 194.508,103.027 194.410 C 103.668 194.242,103.667 194.228,103.015 194.186 C 102.632 194.161,102.215 194.412,102.088 194.743 M127.442 200.586 C 127.447 201.445,127.527 201.751,127.620 201.265 C 127.713 200.779,127.710 200.076,127.612 199.702 C 127.514 199.329,127.438 199.727,127.442 200.586 M107.031 212.305 C 110.356 215.635,113.164 218.359,113.272 218.359 C 113.379 218.359,110.747 215.635,107.422 212.305 C 104.097 208.975,101.289 206.250,101.181 206.250 C 101.074 206.250,103.706 208.975,107.031 212.305 M168.535 220.508 C 168.535 227.813,168.588 230.746,168.652 227.026 C 168.716 223.306,168.716 217.329,168.652 213.745 C 168.587 210.160,168.535 213.203,168.535 220.508 M187.016 210.823 C 187.502 210.917,188.205 210.913,188.579 210.815 C 188.952 210.717,188.555 210.641,187.695 210.645 C 186.836 210.650,186.530 210.730,187.016 210.823 M178.253 221.680 C 178.255 223.184,178.326 223.751,178.410 222.941 C 178.495 222.130,178.493 220.900,178.407 220.206 C 178.321 219.513,178.251 220.176,178.253 221.680 M187.798 219.808 C 188.283 219.901,188.987 219.897,189.360 219.800 C 189.733 219.702,189.336 219.625,188.477 219.630 C 187.617 219.634,187.312 219.714,187.798 219.808 M224.316 219.801 C 224.692 219.899,225.308 219.899,225.684 219.801 C 226.060 219.702,225.752 219.622,225.000 219.622 C 224.248 219.622,223.940 219.702,224.316 219.801 M278.654 230.273 C 278.653 232.207,278.719 233.047,278.801 232.141 C 278.883 231.234,278.884 229.652,278.803 228.625 C 278.722 227.598,278.655 228.340,278.654 230.273 " stroke="none" fill="#aab4b4" fill-rule="evenodd"></path></g></svg>